<?xml version="1.0" encoding="utf-8"?>
<!-- Generator: Adobe Illustrator 27.5.0, SVG Export Plug-In . SVG Version: 6.00 Build 0)  -->
<svg version="1.1" xmlns="http://www.w3.org/2000/svg" xmlns:xlink="http://www.w3.org/1999/xlink" x="0px" y="0px"
	 viewBox="0 0 500 500" style="enable-background:new 0 0 500 500;" xml:space="preserve">
<g id="Background">
	<path id="XMLID_117_" style="opacity:0.4;fill:#C6FF00;" d="M386.735,145.238c0,0-32.24-43.189-85.769-46.23
		c-53.53-3.041-83.336,33.456-105.234,60.829c-21.898,27.373-88.202,11.557-128.35,53.53C27.234,255.339,46.7,279.67,64.34,304.002
		s34.673,27.981,34.673,48.055c0,20.074,9.733,46.838,48.055,52.921c38.322,6.083,77.861-31.023,105.234-17.032
		c27.373,13.991,73.299,24.94,101.433,17.032c28.133-7.908,19.617-37.106,50.032-46.839c30.415-9.733,59.613-40.147,55.355-72.995
		c-4.258-32.848-28.59-38.931-38.931-70.562C409.85,182.952,395.251,158.62,386.735,145.238z"/>
</g>
<g id="Shadows">
	<path id="XMLID_10_" style="fill:#263238;" d="M423.377,411.822c0,1.764-55.966,3.194-125.004,3.194s-125.004-1.43-125.004-3.194
		c0-1.764,55.966-3.194,125.004-3.194S423.377,410.058,423.377,411.822z"/>
</g>
<g id="Speech_bubble">
	<g id="XMLID_124_">
		<g id="XMLID_119_">
			<g>
				<path id="XMLID_121_" style="fill:#C6FF00;" d="M324.485,174.397H207.024c-3.654,0-6.615-2.962-6.615-6.616v-45.914
					c0-3.654,2.962-6.616,6.615-6.616h117.461c3.654,0,6.616,2.962,6.616,6.616v45.914
					C331.101,171.435,328.139,174.397,324.485,174.397z"/>
				<path id="XMLID_40_" style="opacity:0.1;" d="M324.485,174.397H207.024c-3.654,0-6.615-2.962-6.615-6.616v-45.914
					c0-3.654,2.962-6.616,6.615-6.616h117.461c3.654,0,6.616,2.962,6.616,6.616v45.914
					C331.101,171.435,328.139,174.397,324.485,174.397z"/>
			</g>
			<g>
				<polyline id="XMLID_120_" style="fill:#C6FF00;" points="200.409,163.996 200.409,185.354 212.325,171.64 				"/>
				<polyline id="XMLID_41_" style="opacity:0.1;" points="200.409,163.996 200.409,185.354 212.325,171.64 				"/>
			</g>
		</g>
		<path id="XMLID_118_" style="fill:#FFFFFF;" d="M300.971,147.699h-84.363c-1.301,0-2.356-1.055-2.356-2.357l0,0
			c0-1.301,1.055-2.356,2.356-2.356h84.363c1.301,0,2.356,1.055,2.356,2.356l0,0C303.327,146.643,302.272,147.699,300.971,147.699z"
			/>
		<path id="XMLID_123_" style="fill:#FFFFFF;" d="M300.971,158.538h-84.363c-1.301,0-2.356-1.055-2.356-2.357l0,0
			c0-1.301,1.055-2.357,2.356-2.357h84.363c1.301,0,2.356,1.055,2.356,2.357l0,0C303.327,157.483,302.272,158.538,300.971,158.538z"
			/>
		<circle id="XMLID_122_" style="fill:#FFFFFF;" cx="221.321" cy="128.375" r="8.483"/>
	</g>
	<g id="XMLID_42_">
		<g id="XMLID_46_">
			<g>
				<path id="XMLID_50_" style="fill:#C6FF00;" d="M324.485,254.441H207.024c-3.654,0-6.615-2.962-6.615-6.616v-45.914
					c0-3.654,2.962-6.616,6.615-6.616h117.461c3.654,0,6.616,2.962,6.616,6.616v45.914
					C331.101,251.479,328.139,254.441,324.485,254.441z"/>
				<path id="XMLID_49_" style="opacity:0.1;" d="M324.485,254.441H207.024c-3.654,0-6.615-2.962-6.615-6.616v-45.914
					c0-3.654,2.962-6.616,6.615-6.616h117.461c3.654,0,6.616,2.962,6.616,6.616v45.914
					C331.101,251.479,328.139,254.441,324.485,254.441z"/>
			</g>
			<g>
				<polyline id="XMLID_48_" style="fill:#C6FF00;" points="200.409,244.039 200.409,265.398 212.325,251.683 				"/>
				<polyline id="XMLID_47_" style="opacity:0.1;" points="200.409,244.039 200.409,265.398 212.325,251.683 				"/>
			</g>
		</g>
		<path id="XMLID_45_" style="fill:#FFFFFF;" d="M300.971,227.742h-84.363c-1.301,0-2.356-1.055-2.356-2.357l0,0
			c0-1.301,1.055-2.356,2.356-2.356h84.363c1.301,0,2.356,1.055,2.356,2.356l0,0C303.327,226.687,302.272,227.742,300.971,227.742z"
			/>
		<path id="XMLID_44_" style="fill:#FFFFFF;" d="M300.971,238.582h-84.363c-1.301,0-2.356-1.055-2.356-2.356l0,0
			c0-1.301,1.055-2.357,2.356-2.357h84.363c1.301,0,2.356,1.055,2.356,2.357l0,0C303.327,237.527,302.272,238.582,300.971,238.582z"
			/>
		<circle id="XMLID_43_" style="fill:#FFFFFF;" cx="221.321" cy="208.419" r="8.483"/>
	</g>
</g>
<g id="Plant">
	<g>
		<g id="XMLID_55_">
			<g id="XMLID_92_">
				<g id="XMLID_94_">
					<path id="XMLID_105_" style="fill:#263238;" d="M109.648,312.498c-0.089,0.035-0.49-6.266-0.469-6.667
						c0.236-4.635,3.415-13.452,8.437-14.793c3.618-0.966,6.951,1.667,7.523,5.214c0.584,3.622-1.774,7.478-4.171,9.982
						C118.153,309.173,109.654,312.495,109.648,312.498z"/>
					<path id="XMLID_104_" style="fill:#263238;" d="M103.088,288.345c-0.093,0.021,0.465-6.268,0.546-6.661
						c0.935-4.546,5.414-12.78,10.581-13.344c3.722-0.406,6.619,2.701,6.647,6.293c0.028,3.669-2.886,7.123-5.635,9.235
						C111.999,286.346,103.095,288.343,103.088,288.345z"/>
					<path id="XMLID_103_" style="fill:#263238;" d="M101.43,259.834c-0.093,0.021,0.465-6.268,0.546-6.661
						c0.935-4.546,5.414-12.78,10.58-13.344c3.722-0.407,6.619,2.701,6.647,6.293c0.029,3.669-2.886,7.123-5.635,9.235
						C110.341,257.836,101.437,259.832,101.43,259.834z"/>
					<path id="XMLID_102_" style="fill:#263238;" d="M98.561,233.018c-0.093,0.021,0.465-6.268,0.546-6.661
						c0.935-4.546,5.414-12.78,10.581-13.344c3.722-0.407,6.619,2.701,6.646,6.293c0.029,3.669-2.886,7.123-5.635,9.235
						C107.471,231.02,98.567,233.016,98.561,233.018z"/>
					<path id="XMLID_101_" style="fill:#263238;" d="M90.013,211.469c-0.084,0.045-1.207-6.168-1.233-6.569
						c-0.299-4.631,1.847-13.756,6.681-15.664c3.483-1.375,7.097,0.857,8.072,4.314c0.996,3.531-0.903,7.632-2.996,10.395
						C98.08,207.188,90.019,211.466,90.013,211.469z"/>
					<path id="XMLID_100_" style="fill:#263238;" d="M107.032,312.568c0.094-0.013-2.637-5.705-2.851-6.045
						c-2.472-3.928-9.558-10.064-14.593-8.777c-3.628,0.927-5.248,4.853-4.013,8.227c1.262,3.445,5.204,5.655,8.52,6.667
						C97.988,313.827,107.026,312.569,107.032,312.568z"/>
					<path id="XMLID_99_" style="fill:#263238;" d="M101.754,285.11c0.091-0.027-3.471-5.24-3.734-5.543
						c-3.039-3.508-10.972-8.5-15.755-6.465c-3.446,1.466-4.453,5.592-2.72,8.74c1.769,3.214,6.001,4.802,9.431,5.299
						C93.004,287.724,101.748,285.112,101.754,285.11z"/>
					<path id="XMLID_98_" style="fill:#263238;" d="M100.242,258.215c0.091-0.027-3.471-5.24-3.734-5.543
						c-3.039-3.508-10.972-8.5-15.755-6.465c-3.446,1.466-4.453,5.592-2.72,8.74c1.769,3.214,6.001,4.802,9.431,5.3
						C91.493,260.829,100.236,258.216,100.242,258.215z"/>
					<path id="XMLID_97_" style="fill:#263238;" d="M97.654,233.53c0.091-0.027-3.471-5.24-3.734-5.543
						c-3.039-3.508-10.972-8.5-15.755-6.465c-3.446,1.466-4.453,5.592-2.72,8.74c1.769,3.214,6.001,4.802,9.431,5.299
						C88.904,236.145,97.648,233.532,97.654,233.53z"/>
					<path id="XMLID_96_" style="fill:#263238;" d="M90.061,212.283c0.088-0.037-4.025-4.827-4.32-5.1
						c-3.406-3.153-11.839-7.243-16.369-4.696c-3.264,1.835-3.812,6.048-1.744,8.985c2.112,3,6.492,4.113,9.956,4.231
						C81.652,215.843,90.055,212.286,90.061,212.283z"/>
					<path id="XMLID_95_" style="fill:#263238;" d="M79.15,194.716c0.095,0.007-1.348-6.139-1.484-6.517
						c-1.57-4.367-7.17-11.884-12.364-11.711c-3.742,0.125-6.169,3.611-5.688,7.171c0.492,3.636,3.866,6.642,6.886,8.343
						C70.046,194,79.143,194.715,79.15,194.716z"/>
				</g>
				<path id="XMLID_93_" style="fill:#263238;" d="M118.395,344.899c0,0-1.074-2.445-2.759-6.74
					c-1.686-4.302-4.008-10.477-6.454-18.003c-1.232-3.76-2.486-7.86-3.698-12.23c-0.626-2.196-1.185-4.405-1.797-6.78
					c-0.254-1.157-0.511-2.326-0.771-3.506c-0.283-1.165-0.433-2.431-0.658-3.658c-0.796-4.945-1.27-10.041-1.525-15.232
					c-0.257-5.186-0.356-10.444-0.478-15.688c-0.119-5.245-0.267-10.479-0.685-15.605c-0.41-5.125-1.076-10.144-2.154-14.91
					c-1.078-4.761-2.72-9.238-4.463-13.354c-1.744-4.141-3.746-7.904-5.678-11.322c-1.926-3.426-3.901-6.444-5.671-9.103
					c-1.793-2.645-3.437-4.897-4.822-6.727c-2.779-3.655-4.523-5.622-4.523-5.622s1.786,1.928,4.647,5.525
					c1.426,1.802,3.121,4.02,4.975,6.632c1.832,2.626,3.878,5.609,5.887,9.007c2.015,3.39,4.11,7.129,5.96,11.267
					c1.86,4.146,3.606,8.601,4.811,13.425c1.2,4.813,1.985,9.884,2.511,15.048c0.534,5.167,0.797,10.429,1.03,15.676
					c0.236,5.248,0.449,10.486,0.815,15.616c0.362,5.124,0.947,10.16,1.818,14.914c0.245,1.188,0.399,2.349,0.712,3.529
					c0.285,1.174,0.568,2.338,0.847,3.489c0.62,2.198,1.246,4.47,1.905,6.599c1.293,4.298,2.622,8.33,3.923,12.025
					c2.583,7.399,5.015,13.463,6.773,17.676c1.764,4.221,2.853,6.56,2.853,6.56c0.426,0.914,0.03,1.999-0.884,2.425
					c-0.914,0.426-1.999,0.03-2.425-0.884c-0.004-0.009-0.009-0.019-0.013-0.028L118.395,344.899z"/>
			</g>
		</g>
		<g id="XMLID_73_">
			<g id="XMLID_84_">
				<g id="XMLID_86_">
					<path id="XMLID_111_" style="fill:#263238;" d="M141.944,306.137c-0.095,0.008,1.312-6.147,1.445-6.525
						c1.544-4.377,7.099-11.926,12.294-11.784c3.743,0.103,6.191,3.574,5.731,7.137c-0.47,3.639-3.827,6.665-6.836,8.384
						C151.044,305.367,141.951,306.137,141.944,306.137z"/>
					<path id="XMLID_110_" style="fill:#263238;" d="M142.521,281.116c-0.095-0.006,2.228-5.877,2.417-6.231
						c2.189-4.092,8.823-10.714,13.937-9.786c3.684,0.668,5.578,4.471,4.584,7.923c-1.016,3.526-4.792,6.009-8.028,7.252
						C151.632,281.733,142.527,281.117,142.521,281.116z"/>
					<path id="XMLID_109_" style="fill:#263238;" d="M149.035,253.31c-0.095-0.006,2.228-5.877,2.417-6.231
						c2.189-4.092,8.823-10.714,13.937-9.786c3.684,0.668,5.578,4.471,4.584,7.923c-1.016,3.526-4.792,6.009-8.028,7.252
						C158.146,253.927,149.042,253.311,149.035,253.31z"/>
					<path id="XMLID_108_" style="fill:#263238;" d="M153.907,226.785c-0.095-0.006,2.228-5.877,2.417-6.231
						c2.189-4.092,8.823-10.714,13.937-9.786c3.684,0.668,5.578,4.471,4.584,7.923c-1.016,3.526-4.792,6.009-8.028,7.252
						C163.018,227.402,153.914,226.785,153.907,226.785z"/>
					<path id="XMLID_107_" style="fill:#263238;" d="M151.838,203.695c-0.093,0.019,0.596-6.257,0.686-6.648
						c1.03-4.525,5.681-12.663,10.858-13.119c3.73-0.328,6.561,2.839,6.513,6.431c-0.049,3.669-3.035,7.061-5.828,9.115
						C160.788,201.884,151.844,203.693,151.838,203.695z"/>
					<path id="XMLID_106_" style="fill:#263238;" d="M139.417,305.462c0.094,0.014-0.906-6.22-1.015-6.606
						c-1.254-4.468-6.303-12.365-11.496-12.564c-3.742-0.143-6.411,3.161-6.186,6.747c0.231,3.662,3.382,6.901,6.273,8.814
						C130.387,304.098,139.41,305.461,139.417,305.462z"/>
					<path id="XMLID_91_" style="fill:#263238;" d="M142.161,277.635c0.095,0-1.838-6.01-2.004-6.376
						c-1.916-4.227-8.103-11.268-13.267-10.677c-3.72,0.426-5.859,4.096-5.092,7.606c0.783,3.585,4.389,6.309,7.536,7.762
						C133.029,277.655,142.155,277.635,142.161,277.635z"/>
					<path id="XMLID_90_" style="fill:#263238;" d="M148.357,251.42c0.095,0-1.838-6.01-2.004-6.376
						c-1.916-4.227-8.103-11.268-13.267-10.677c-3.72,0.426-5.859,4.096-5.092,7.606c0.783,3.585,4.388,6.309,7.536,7.762
						C139.225,251.44,148.35,251.42,148.357,251.42z"/>
					<path id="XMLID_89_" style="fill:#263238;" d="M152.892,227.018c0.095,0-1.838-6.01-2.004-6.376
						c-1.916-4.227-8.103-11.268-13.267-10.677c-3.72,0.426-5.859,4.096-5.092,7.606c0.783,3.585,4.388,6.309,7.536,7.762
						C143.76,227.038,152.886,227.018,152.892,227.018z"/>
					<path id="XMLID_88_" style="fill:#263238;" d="M151.653,204.489c0.094-0.011-2.487-5.772-2.692-6.117
						c-2.369-3.991-9.292-10.31-14.359-9.155c-3.651,0.832-5.373,4.715-4.226,8.119c1.172,3.477,5.055,5.789,8.343,6.887
						C142.578,205.512,151.646,204.49,151.653,204.489z"/>
					<path id="XMLID_87_" style="fill:#263238;" d="M146.185,184.545c0.089,0.034,0.453-6.269,0.43-6.67
						c-0.263-4.634-3.496-13.432-8.525-14.742c-3.623-0.944-6.941,1.708-7.492,5.258c-0.562,3.626,1.818,7.467,4.23,9.957
						C137.66,181.271,146.179,184.543,146.185,184.545z"/>
				</g>
				<path id="XMLID_85_" style="fill:#263238;" d="M141.12,339.689c0,0-0.335-2.65-0.729-7.246
					c-0.394-4.604-0.865-11.184-1.07-19.095c-0.112-3.955-0.149-8.242-0.069-12.777c0.024-2.283,0.116-4.56,0.205-7.011
					c0.085-1.181,0.171-2.375,0.258-3.581c0.06-1.197,0.276-2.454,0.409-3.694c0.643-4.967,1.637-9.988,2.867-15.037
					c1.228-5.045,2.628-10.114,4.002-15.177c1.377-5.062,2.723-10.123,3.779-15.156c1.064-5.03,1.852-10.031,2.173-14.907
					c0.32-4.871,0.018-9.63-0.482-14.072c-0.495-4.466-1.344-8.643-2.226-12.469c-0.872-3.832-1.908-7.287-2.85-10.34
					c-0.967-3.046-1.904-5.672-2.711-7.82c-1.626-4.294-2.738-6.675-2.738-6.675s1.164,2.356,2.884,6.618
					c0.855,2.133,1.85,4.741,2.885,7.772c1.01,3.038,2.124,6.48,3.083,10.309c0.969,3.823,1.914,8.004,2.511,12.497
					c0.605,4.503,1.012,9.271,0.796,14.238c-0.217,4.956-0.907,10.04-1.87,15.141c-0.957,5.105-2.201,10.225-3.469,15.322
					c-1.265,5.098-2.551,10.181-3.658,15.204c-1.109,5.016-1.98,10.01-2.496,14.815c-0.102,1.209-0.285,2.366-0.32,3.586
					c-0.061,1.207-0.12,2.403-0.18,3.586c-0.03,2.284-0.076,4.64-0.049,6.868c0.018,4.488,0.147,8.731,0.343,12.645
					c0.373,7.828,0.981,14.334,1.469,18.873c0.491,4.548,0.871,7.1,0.871,7.1c0.148,0.997-0.54,1.925-1.536,2.074
					c-0.997,0.148-1.925-0.54-2.074-1.537c-0.002-0.01-0.003-0.02-0.004-0.031L141.12,339.689z"/>
			</g>
		</g>
		<g id="XMLID_72_">
			<polygon id="XMLID_114_" style="fill:#263238;" points="152.719,405.815 110.382,405.815 98.474,336.469 164.626,336.469 			"/>
		</g>
	</g>
</g>
<g id="Character">
	<g>
		
			<circle id="XMLID_54_" style="fill:#C6FF00;stroke:#263238;stroke-width:0.9124;stroke-linecap:round;stroke-linejoin:round;stroke-miterlimit:10;" cx="227.301" cy="320.298" r="92.072"/>
		<g>
			<path style="fill:#263238;" d="M202.911,380.852c-8.1-3.059-15.108-7.371-21.021-12.935
				c-5.915-5.564-10.547-12.557-13.898-20.978c-3.351-8.419-5.025-17.728-5.025-27.926c0-8.507,1.412-16.461,4.239-23.861
				c2.826-7.4,6.643-13.752,11.45-19.054c4.808-5.302,10.358-9.878,16.651-13.722c6.293-3.846,12.95-6.701,19.972-8.566
				c7.021-1.865,14.086-2.798,21.196-2.798c6.118,0,11.988,0.7,17.611,2.098c5.623,1.399,10.896,3.584,15.821,6.555
				c4.923,2.972,9.221,6.614,12.892,10.926c3.671,4.313,6.555,9.542,8.653,15.689c2.098,6.148,3.147,12.892,3.147,20.234
				c0,6.876-1.254,13.505-3.759,19.885c-2.506,6.381-5.712,11.771-9.614,16.171c-3.905,4.4-8.232,7.909-12.98,10.532
				c-4.749,2.622-9.367,3.933-13.854,3.933c-3.438,0-6.541-1.019-9.308-3.059c-2.768-2.039-4.239-4.924-4.414-8.653
				c-5.711,8.041-13.432,12.061-23.162,12.061c-7.925,0-14.247-2.71-18.967-8.128c-4.719-5.419-7.079-12.091-7.079-20.015
				c0-5.885,1.034-11.771,3.103-17.656c2.067-5.885,4.88-11.216,8.434-15.995c3.554-4.777,8.026-8.666,13.417-11.668
				c5.389-3,11.114-4.501,17.175-4.501c4.37,0,8.375,0.977,12.018,2.928c3.641,1.953,6.424,4.793,8.347,8.521l0.787-2.534
				c1.048-3.262,3.321-4.895,6.818-4.895c1.631,0,3.028,0.467,4.195,1.399c1.165,0.933,1.748,2.243,1.748,3.933
				c0,0.7-0.118,1.399-0.35,2.098l-12.411,41.255c-1.398,4.72-2.098,7.954-2.098,9.702c0,2.972,1.514,4.458,4.545,4.458
				c3.961,0,7.851-1.82,11.668-5.462c3.815-3.641,6.919-8.479,9.308-14.509c2.389-6.032,3.585-12.281,3.585-18.748
				c0-6.06-0.817-11.626-2.448-16.695c-1.632-5.069-3.846-9.366-6.642-12.892c-2.798-3.525-6.119-6.497-9.965-8.915
				c-3.846-2.418-7.953-4.195-12.323-5.332c-4.371-1.137-8.946-1.705-13.723-1.705c-5.828,0-11.611,0.818-17.35,2.448
				c-5.74,1.632-11.203,4.094-16.388,7.385c-5.187,3.293-9.776,7.197-13.766,11.713c-3.992,4.516-7.167,9.92-9.527,16.213
				c-2.36,6.294-3.54,13.024-3.54,20.191c0,8.859,1.456,16.826,4.37,23.906c2.914,7.08,6.89,12.82,11.931,17.219
				c5.04,4.4,10.808,7.766,17.306,10.095c6.497,2.332,13.446,3.497,20.847,3.497c7.692,0,15.15-1.137,22.376-3.409
				c0.641-0.232,1.398-0.349,2.272-0.349c1.631,0,2.941,0.54,3.933,1.618c0.991,1.079,1.486,2.315,1.486,3.714
				c0,2.565-1.195,4.195-3.584,4.895c-9.614,2.854-18.909,4.282-27.881,4.282C219.75,385.441,211.009,383.911,202.911,380.852z
				 M234.508,341.17c3.933-2.942,6.599-6.599,7.998-10.969l8.041-28.145l-0.525-1.136c-0.349-0.699-0.961-1.558-1.835-2.579
				c-0.874-1.018-1.909-2.039-3.103-3.059c-1.195-1.019-2.797-1.893-4.807-2.622c-2.01-0.727-4.152-1.092-6.425-1.092
				c-2.565,0-5.056,0.524-7.473,1.573c-2.419,1.048-4.589,2.462-6.512,4.239c-1.923,1.779-3.686,3.846-5.288,6.206
				c-1.603,2.36-2.943,4.851-4.021,7.473c-1.079,2.622-1.909,5.319-2.491,8.086c-0.583,2.768-0.874,5.434-0.874,7.998
				c0,1.865,0.101,3.584,0.306,5.157c0.204,1.573,0.538,3.059,1.005,4.458c0.465,1.399,1.062,2.638,1.792,3.714
				c0.728,1.08,1.602,1.997,2.622,2.754c1.019,0.758,2.229,1.341,3.628,1.748c1.398,0.408,2.972,0.612,4.72,0.612
				C226.16,345.584,230.574,344.113,234.508,341.17z"/>
		</g>
	</g>
	<g>
		
			<path id="XMLID_7_" style="fill:#FFFFFF;stroke:#263238;stroke-width:0.9124;stroke-linecap:round;stroke-linejoin:round;stroke-miterlimit:10;" d="
			M352.511,242.868c0,0-2.968,5.578-3.44,6.366c-0.472,0.787-2.047,5.039-1.575,5.983c0.472,0.945,0.945,1.575,1.889,1.732
			c0.945,0.158,1.732,1.889,3.307,2.204c1.575,0.315,2.992,0.315,2.992,0.315s0.787,0.63,1.732,0.315
			c0.945-0.315,1.732-0.787,2.362-3.464c0.63-2.677,0.315-4.094,0.315-4.094l-0.282-5.404L352.511,242.868z"/>
		<g>
			
				<path id="XMLID_12_" style="fill:#FFFFFF;stroke:#263238;stroke-width:0.9124;stroke-linecap:round;stroke-linejoin:round;stroke-miterlimit:10;" d="
				M369.847,393.117c0,0-4.27,6.958-4.27,8.638s5.881,4.761,8.402,5.881c2.521,1.12,7.001,1.96,10.642,2.52
				c3.641,0.56,11.202,1.96,8.962-0.84c-2.24-2.801-15.683-10.362-16.243-11.202c-0.56-0.84-2.322-2.26-2.322-2.26L369.847,393.117z
				"/>
			
				<path id="XMLID_3_" style="fill:#FFFFFF;stroke:#263238;stroke-width:0.9124;stroke-linecap:round;stroke-linejoin:round;stroke-miterlimit:10;" d="
				M376.538,404.066l1.498,2.247c1.625,2.438,3.801,4.469,6.379,5.86c3.997,2.157,10.165,4.629,15.542,3.146
				c8.82-2.433-13.382-15.816-13.382-15.816S378.667,404.978,376.538,404.066z"/>
			
				<path id="XMLID_23_" style="fill:none;stroke:#263238;stroke-width:0.6843;stroke-linecap:round;stroke-linejoin:round;stroke-miterlimit:10;" d="
				M379.083,405.13c0,0,3.108,5.439,10.36,7.511c7.252,2.072,9.324,1.554,10.878-0.518"/>
			
				<path id="XMLID_35_" style="fill:none;stroke:#263238;stroke-width:0.6843;stroke-linecap:round;stroke-linejoin:round;stroke-miterlimit:10;" d="
				M366.133,400.468c0,0,8.008,5.733,11.903,5.845"/>
		</g>
		<g>
			<path id="XMLID_1_" style="fill:#263238;" d="M348.76,244.788c0,0,7.096,11.767,8.617,14.505
				c1.521,2.737,20.682,24.636,28.286,43.493c7.604,18.857,14.903,35.889,14.599,41.364c-0.304,5.475-25.244,51.705-25.244,51.705
				l-5.171-2.737c0,0,7.908-43.493,6.995-48.055c-0.912-4.562-28.894-49.88-28.894-49.88s-13.078-9.124-18.553-19.769"/>
			<path id="XMLID_2_" style="fill:#263238;" d="M349.773,274.195c0,0-3.954,8.516-3.954,9.733c0,1.217,22.203,66.608,28.59,81.511
				c6.387,14.903,10.645,29.198,10.645,29.198s2.433,3.042,0.608,6.083c-1.825,3.041-9.124,5.17-10.645,2.433
				c-1.521-2.737-16.424-17.032-22.811-31.327c-6.387-14.295-15.511-38.626-20.682-47.751c-5.171-9.124-11.558-20.378-18.249-36.193
				c-6.691-15.815-13.587-32.949-13.587-32.949s12.774,1.521,26.765-3.041c13.991-4.562,19.973-13.288,19.973-13.288
				s3.559,9.099,4.479,10.861"/>
			
				<polyline id="XMLID_11_" style="fill:none;stroke:#FFFFFF;stroke-width:0.6843;stroke-linecap:round;stroke-linejoin:round;stroke-miterlimit:10;" points="
				351.855,299.536 344.854,281.333 352.695,274.611 			"/>
			
				<path id="XMLID_14_" style="fill:none;stroke:#FFFFFF;stroke-width:0.6843;stroke-linecap:round;stroke-linejoin:round;stroke-miterlimit:10;" d="
				M359.416,280.772l-14.563,0.56c0,0,0-5.601-2.521-9.242c-2.52-3.641-3.081-4.201-3.361-5.321c-0.28-1.12,0-3.081,0-3.081"/>
			
				<path id="XMLID_15_" style="fill:none;stroke:#FFFFFF;stroke-width:0.6843;stroke-linecap:round;stroke-linejoin:round;stroke-miterlimit:10;" d="
				M377.9,341.824c0,0,9.242,4.761,15.683,4.201"/>
			
				<path id="XMLID_16_" style="fill:none;stroke:#FFFFFF;stroke-width:0.6843;stroke-linecap:round;stroke-linejoin:round;stroke-miterlimit:10;" d="
				M379.58,344.624c0,0,6.441,5.321,12.042,6.721"/>
			
				<path id="XMLID_20_" style="fill:none;stroke:#FFFFFF;stroke-width:0.6843;stroke-linecap:round;stroke-linejoin:round;stroke-miterlimit:10;" d="
				M342.613,260.609c-0.28,0.84,1.12,4.761,1.96,6.721c0.84,1.96,3.641,3.361,3.641,4.761s-3.641,3.921-3.641,3.921"/>
			
				<path id="XMLID_17_" style="fill:none;stroke:#FFFFFF;stroke-width:0.6843;stroke-linecap:round;stroke-linejoin:round;stroke-miterlimit:10;" d="
				M318.529,267.89c0,0-1.68,5.601-4.481,7.841c-2.801,2.24-2.801,2.24-2.801,2.24"/>
			
				<path id="XMLID_19_" style="fill:none;stroke:#FFFFFF;stroke-width:0.6843;stroke-linecap:round;stroke-linejoin:round;stroke-miterlimit:10;" d="
				M307.327,266.77c0,0,4.761,15.683,11.762,27.725c7.001,12.042,22.964,38.087,23.524,43.128c0.56,5.041,0,10.082,3.921,12.602
				c3.921,2.521,3.641,3.641,4.201,7.001c0.56,3.361,2.24,7.001,2.24,7.001s11.202,19.043,15.123,26.045
				c3.921,7.001,9.634,13.891,9.634,13.891"/>
		</g>
		<g>
			<g>
				
					<path id="XMLID_13_" style="fill:#FFFFFF;stroke:#263238;stroke-width:0.9124;stroke-linecap:round;stroke-linejoin:round;stroke-miterlimit:10;" d="
					M299.689,254.933c0,0,0.637,7.076,3.437,9.316c2.8,2.24,11.202,4.201,22.684,1.96c11.482-2.24,24.085-12.042,25.205-15.403
					c1.12-3.361-4.587-12.197-4.587-12.197s-6.615,9.396-25.098,12.477C302.846,254.168,299.689,254.933,299.689,254.933z"/>
				<g>
					<g>
						<defs>
							<path id="XMLID_36_" d="M373.497,186.297c-4.562-3.042-40.147-30.719-43.493-31.935c-3.346-1.217-10.037,0-10.037,0
								s-20.616,2.514-24.94,4.258c-0.404,0.163-9.7,5.503-10.037,5.779c-3.346,2.737-17.983,9.48-21.937,17.996
								c-4.474,9.635,34.81,67.672,36.635,72.538c1.825,4.866,11.42,6.052,20.241,4.835c8.82-1.217,16.561-3.01,22.948-10.31
								c1.093-1.249,2.122-3.133,2.895-4.749c0.91-1.903,1.148-4.049,0.656-6.1c-2.282-9.496-8.102-36.891-11.936-55.016
								c6.401,4.128,19.705,12.517,27.448,15.477c10.341,3.954,18.249,1.216,18.249-2.129
								C380.188,193.597,378.059,189.339,373.497,186.297z"/>
						</defs>
						<use xlink:href="#XMLID_36_"  style="overflow:visible;fill:#FFFFFF;"/>
						<clipPath id="XMLID_00000113325633371471337350000008567534497309388209_">
							<use xlink:href="#XMLID_36_"  style="overflow:visible;"/>
						</clipPath>
						<path style="opacity:0.5;clip-path:url(#XMLID_00000113325633371471337350000008567534497309388209_);fill:#C6FF00;" d="
							M334.078,176.397c0,0,4.866,1.825,8.516,1.825c3.65,0,1.521,1.521,0,2.129c-1.521,0.608,9.733-0.912,9.428,0.913
							c-0.304,1.825-8.212,5.475-8.212,5.475s6.691,4.258,17.336,5.475c10.645,1.217,3.954,7.604,3.954,7.604
							s-17.117-6.286-30.609-16.221L334.078,176.397z"/>
						<g style="opacity:0.5;clip-path:url(#XMLID_00000113325633371471337350000008567534497309388209_);">
							<path style="fill:#C6FF00;" d="M280.244,197.079c0,0-2.433,3.954-1.216,4.258c1.216,0.304,13.686-4.866,9.428-0.608
								c-4.258,4.258-9.428,4.258-7.299,5.475s7.604,1.217,5.779,2.433c-1.825,1.217,1.825,6.691,10.949,17.64
								C307.009,237.226,310.963,244.829,321,250s16.728,5.171,10.645,6.691c-6.083,1.521-12.47,2.433-12.774,5.171
								c0,0,0.304,2.129-3.346,3.65c-3.65,1.521-5.779,1.217-8.516,0c-2.737-1.217-3.65-1.217-4.258-2.737
								c-0.608-1.521-3.063-7.841-3.063-7.841l-4.357-9.328l-1.4-1.993l-1.217-0.912l-21.29-36.497L280.244,197.079z"/>
						</g>
						
							<use xlink:href="#XMLID_36_"  style="overflow:visible;fill:none;stroke:#263238;stroke-width:0.9124;stroke-linecap:round;stroke-linejoin:round;stroke-miterlimit:10;"/>
					</g>
					<g>
						<defs>
							<path id="XMLID_62_" d="M267.941,176.173c0,0-3.653,4.021-5.073,5.847c-7.615,9.794-31.87,41.16-32.143,43.686
								c-0.259,2.403,0.887,4.236,6.818,6.517c5.931,2.281,45.592-37.477,45.592-37.477"/>
						</defs>
						<use xlink:href="#XMLID_62_"  style="overflow:visible;fill:#FFFFFF;"/>
						<clipPath id="XMLID_00000055668040589727029070000007938808269446476457_">
							<use xlink:href="#XMLID_62_"  style="overflow:visible;"/>
						</clipPath>
						<g style="opacity:0.5;clip-path:url(#XMLID_00000055668040589727029070000007938808269446476457_);">
							<path style="opacity:0.8;fill:#C6FF00;" d="M270.208,175.484L241.01,216.24c0,0,3.041,3.346,6.691,6.691
								c3.65,3.346,10.037,5.475,5.17,5.171c-4.866-0.304-13.991-3.954-13.991-3.954s-2.737,2.129,0.608,4.258
								c3.346,2.129,3.954,0.608,13.687,5.475c9.733,4.866,25.305,8.012,25.305,8.012l-1.262,2.555l-41.379-10.567
								c0,0-6.019-3.01-5.139-8.044c0.881-5.034,14.827-20.98,14.827-20.98l19.988-26.207
								C265.516,178.649,267.391,175.875,270.208,175.484z"/>
						</g>
						
							<use xlink:href="#XMLID_62_"  style="overflow:visible;fill:none;stroke:#263238;stroke-width:0.9124;stroke-linecap:round;stroke-linejoin:round;stroke-miterlimit:10;"/>
					</g>
					<g>
						
							<path id="XMLID_21_" style="fill:none;stroke:#263238;stroke-width:0.6843;stroke-linecap:round;stroke-linejoin:round;stroke-miterlimit:10;" d="
							M348.214,174.353l-13.723,9.242c1.96-0.28,11.482-3.641,11.482-3.641"/>
						
							<line id="XMLID_22_" style="fill:none;stroke:#263238;stroke-width:0.6843;stroke-linecap:round;stroke-linejoin:round;stroke-miterlimit:10;" x1="347.654" y1="179.674" x2="350.735" y2="179.114"/>
						
							<path id="XMLID_24_" style="fill:none;stroke:#263238;stroke-width:0.9124;stroke-linecap:round;stroke-linejoin:round;stroke-miterlimit:10;" d="
							M245.999,216.027c0,0-2.805-0.227-6.165,1.173"/>
						
							<path id="XMLID_29_" style="fill:none;stroke:#263238;stroke-width:0.6843;stroke-linecap:round;stroke-linejoin:round;stroke-miterlimit:10;" d="
							M275.904,202.293c0,0,7.704-2.358,9.748-3.93"/>
						
							<path id="XMLID_31_" style="fill:none;stroke:#263238;stroke-width:0.6843;stroke-linecap:round;stroke-linejoin:round;stroke-miterlimit:10;" d="
							M287.538,197.576c0,0,1.258-1.1,1.729-1.1"/>
						
							<line id="XMLID_37_" style="fill:#FFFFFF;stroke:#263238;stroke-width:0.9124;stroke-linecap:round;stroke-linejoin:round;stroke-miterlimit:10;" x1="334.492" y1="183.594" x2="333.241" y2="170.74"/>
					</g>
				</g>
				<g>
					<defs>
						<path id="XMLID_61_" d="M230.7,225.836c0,0-1.774,6.773,9.581,9.581c5.388,1.332,41.06,10.037,41.06,10.037
							s3.193-6.843,1.369-6.843c-1.825,0-34.673-21.898-34.673-21.898"/>
					</defs>
					<use xlink:href="#XMLID_61_"  style="overflow:visible;fill:#FFFFFF;"/>
					<clipPath id="XMLID_00000156547581303224445120000004316799217943495567_">
						<use xlink:href="#XMLID_61_"  style="overflow:visible;"/>
					</clipPath>
					<path style="opacity:0.5;clip-path:url(#XMLID_00000156547581303224445120000004316799217943495567_);fill:#C6FF00;" d="
						M270.208,175.484L241.01,216.24c0,0,3.041,3.346,6.691,6.691c3.65,3.346,10.037,5.475,5.17,5.171
						c-4.866-0.304-13.991-3.954-13.991-3.954s-2.737,2.129,0.608,4.258c3.346,2.129,3.954,0.608,13.687,5.475
						c9.733,4.866,25.311,7.993,25.311,7.993l-1.099,2.616l-41.549-10.609c0,0-7.869-3.724-5.139-8.044
						c3.098-4.903,14.827-20.98,14.827-20.98l20.422-26.026C265.95,178.83,266.558,175.788,270.208,175.484z"/>
					
						<use xlink:href="#XMLID_61_"  style="overflow:visible;fill:none;stroke:#263238;stroke-width:0.9124;stroke-linecap:round;stroke-linejoin:round;stroke-miterlimit:10;"/>
				</g>
				
					<path id="XMLID_65_" style="fill:#FFFFFF;stroke:#263238;stroke-width:0.9124;stroke-linecap:round;stroke-linejoin:round;stroke-miterlimit:10;" d="
					M282.709,238.61c0,0,11.71,5.475,12.622,6.995c0.912,1.521,3.042,9.428,3.042,11.862s-0.304,2.433-1.825,2.433
					c-1.521,0-5.475-5.779-6.387-6.995c-0.913-1.217-3.042-1.217-5.779-3.041c-2.737-1.825-3.041-4.41-3.041-4.41L282.709,238.61z"
					/>
				
					<line id="XMLID_32_" style="fill:none;stroke:#263238;stroke-width:0.9124;stroke-linecap:round;stroke-linejoin:round;stroke-miterlimit:10;" x1="277.711" y1="244.277" x2="279.534" y2="238.627"/>
			</g>
			<path style="opacity:0.4;fill:#C6FF00;" d="M305.095,184.435c0,0-18.758-10.667-25.487-9.706
				c-6.729,0.961-12.496,1.923-12.496,1.923l12.49-8.74C285.772,170.874,294.791,177.432,305.095,184.435z"/>
			
				<path id="XMLID_9_" style="fill:#FFFFFF;stroke:#263238;stroke-width:0.9124;stroke-linecap:round;stroke-linejoin:round;stroke-miterlimit:10;" d="
				M366.501,196.03c0,0-3.041,10.341-4.258,16.424c-1.217,6.083-9.733,30.415-9.733,30.415l7.299,4.562
				c0,0,16.12-33.456,19.161-40.756c3.042-7.299,2.129-12.774-0.912-15.816"/>
			<path id="XMLID_33_" style="fill:#263238;" d="M353.894,239.356c0.547,0,7.472,3.827,7.472,3.827"/>
		</g>
		<g>
			<g>
				<defs>
					<path id="XMLID_25_" d="M305.926,184.435c-1.68-0.28-10.642-6.161-16.803-10.922c-6.161-4.761-9.522-5.601-9.522-5.601
						l-4.201,2.8c0,0-1.12-3.081,0.56-6.161c1.68-3.081,7.561-6.161,13.443-8.402c5.881-2.24,12.602-4.201,16.803-4.201
						c4.201,0,5.321,1.68,5.321,3.921c0,2.24,0,9.242-1.4,14.563C308.727,175.753,305.926,184.435,305.926,184.435z"/>
				</defs>
				<use xlink:href="#XMLID_25_"  style="overflow:visible;fill:#FFFFFF;"/>
				<clipPath id="XMLID_00000046316101960141297430000016091029054348043662_">
					<use xlink:href="#XMLID_25_"  style="overflow:visible;"/>
				</clipPath>
				<g style="opacity:0.5;clip-path:url(#XMLID_00000046316101960141297430000016091029054348043662_);">
					<path style="fill:#C6FF00;" d="M303.287,155.231c0,0-2.586,7.758-5.172,10.086c-2.586,2.327-6.466,4.396-6.466,4.396
						s-1.552-5.431-5.431-5.431s-9.828,2.586-9.828,2.586s0-2.069,4.914-4.655c4.914-2.586,4.914-2.586,4.914-2.586l11.379-4.396
						H303.287z"/>
				</g>
				
					<use xlink:href="#XMLID_25_"  style="overflow:visible;fill:none;stroke:#263238;stroke-width:0.9124;stroke-linecap:round;stroke-linejoin:round;stroke-miterlimit:10;"/>
			</g>
			<g>
				<defs>
					<path id="XMLID_8_" d="M281.037,148.887c0,0,4.866,4.866,6.691,12.774c1.825,7.908,13.267,17.206,16.004,17.206
						s2.549-13.556,1.637-17.51c-0.912-3.954-4.562-14.599-4.562-14.599S286.207,139.763,281.037,148.887z"/>
				</defs>
				<use xlink:href="#XMLID_8_"  style="overflow:visible;fill:#FFFFFF;"/>
				<clipPath id="XMLID_00000026139856701323009390000009795862311374801552_">
					<use xlink:href="#XMLID_8_"  style="overflow:visible;"/>
				</clipPath>
				<g style="opacity:0.5;clip-path:url(#XMLID_00000026139856701323009390000009795862311374801552_);">
					<path style="fill:#C6FF00;" d="M303.287,155.231c0,0-2.586,7.758-5.172,10.086c-2.586,2.327-6.466,4.396-6.466,4.396
						s-1.552-5.431-5.431-5.431s-9.828,2.586-9.828,2.586s0-2.069,4.914-4.655c4.914-2.586,4.914-2.586,4.914-2.586l11.379-4.396
						H303.287z"/>
				</g>
				
					<use xlink:href="#XMLID_8_"  style="overflow:visible;fill:none;stroke:#263238;stroke-width:0.9124;stroke-linecap:round;stroke-linejoin:round;stroke-miterlimit:10;"/>
			</g>
		</g>
		<g>
			<g>
				<defs>
					<path id="XMLID_4_" d="M271.391,134.225c0,0,3.303,9.247,7.926,16.843c4.624,7.596,13.54,11.889,18.494,9.908
						c4.954-1.981,8.316-8.362,6.995-18.269c-0.29-2.177-2.186-3.066-2.801-5.041c-2.183-7.012-4.413-13.743-5.186-16.32
						c-0.991-3.302-8.917-6.605-17.173-4.293C271.391,119.364,270.07,126.299,271.391,134.225z"/>
				</defs>
				<use xlink:href="#XMLID_4_"  style="overflow:visible;fill:#FFFFFF;"/>
				<clipPath id="XMLID_00000106108047157947901910000008587857446238578100_">
					<use xlink:href="#XMLID_4_"  style="overflow:visible;"/>
				</clipPath>
				<path style="opacity:0.5;clip-path:url(#XMLID_00000106108047157947901910000008587857446238578100_);fill:#C6FF00;" d="
					M298.8,128.167c0,0-3.013,2.236-9.737,0.943c-6.724-1.293-11.379-1.035-11.121,0.776c0.259,1.81,0.776,4.138,0.776,4.138
					s-8.091-6.98-0.761-8.869c5.283-1.361,8.334,0.717,9.627,0.975C288.876,126.389,298.8,128.167,298.8,128.167z"/>
				
					<use xlink:href="#XMLID_4_"  style="overflow:visible;fill:none;stroke:#263238;stroke-width:0.9124;stroke-linecap:round;stroke-linejoin:round;stroke-miterlimit:10;"/>
			</g>
			
				<path id="XMLID_6_" style="fill:#FFFFFF;stroke:#263238;stroke-width:0.9124;stroke-linecap:round;stroke-linejoin:round;stroke-miterlimit:10;" d="
				M277.335,145.124c0,0-5.284-2.312-5.614,0c-0.33,2.312,1.981,3.963,4.293,4.954c2.312,0.991,3.633-0.33,3.633-0.33"/>
			<g>
				
					<path id="XMLID_26_" style="fill:#FFFFFF;stroke:#263238;stroke-width:0.9124;stroke-linecap:round;stroke-linejoin:round;stroke-miterlimit:10;" d="
					M298.925,132.065c0,0-5.881-1.4-3.361,6.441c0.5,1.555,3.921,3.361,3.921,3.361s-0.28,2.52-1.68,2.8"/>
				
					<path id="XMLID_27_" style="fill:#FFFFFF;stroke:#263238;stroke-width:0.9124;stroke-linecap:round;stroke-linejoin:round;stroke-miterlimit:10;" d="
					M294.724,150.268c0,0-4.201,0.84-5.881-1.12"/>
				
					<path id="XMLID_18_" style="fill:#FFFFFF;stroke:#263238;stroke-width:0.9124;stroke-linecap:round;stroke-linejoin:round;stroke-miterlimit:10;" d="
					M288.563,137.106c0,0-3.081-1.12-4.761,0.28c-1.68,1.4-1.96,2.521-1.96,2.521"/>
				<path id="XMLID_28_" style="fill:#263238;" d="M288.484,141.901c0.396,0.924,0.313,1.846-0.185,2.059
					c-0.498,0.213-1.222-0.363-1.618-1.288c-0.396-0.924-0.313-1.846,0.185-2.059C287.364,140.4,288.089,140.977,288.484,141.901z"
					/>
				<path id="XMLID_30_" style="fill:#263238;" d="M298.55,137.007c0.396,0.924,0.313,1.846-0.185,2.059
					c-0.498,0.213-1.222-0.363-1.618-1.288c-0.396-0.924-0.313-1.846,0.185-2.059C297.43,135.506,298.154,136.083,298.55,137.007z"
					/>
			</g>
		</g>
		<g>
			<path id="XMLID_5_" style="fill:#263238;" d="M275.866,146.454c0,0,3.346-2.433,2.737-4.562
				c-0.608-2.129-1.825-2.129-0.608-3.346c1.217-1.217,2.129-1.825,1.825-3.65c-0.304-1.825-5.171-4.866-3.65-6.691
				c1.521-1.825,0.912-3.954,13.383-0.913c12.47,3.042,20.378-1.825,16.728-6.387c-3.65-4.562-6.691-5.171-6.691-5.171
				s6.995-3.041,1.217-6.083c-5.779-3.041-18.857-3.041-26.156,2.737s-5.779,10.645-5.779,10.645s-3.954,0.608-4.258,6.691
				C264.309,135.809,275.866,146.454,275.866,146.454z"/>
			
				<path id="XMLID_38_" style="fill:none;stroke:#FFFFFF;stroke-width:0.6843;stroke-linecap:round;stroke-linejoin:round;stroke-miterlimit:10;" d="
				M275.785,125.671c0,0,1.032-3.095,6.191-3.095c5.159,0,9.802,4.385,16.766,2.837c6.964-1.548,3.095-5.675,3.095-5.675"/>
			
				<path id="XMLID_34_" style="fill:none;stroke:#FFFFFF;stroke-width:0.6843;stroke-linecap:round;stroke-linejoin:round;stroke-miterlimit:10;" d="
				M273.464,124.897c0,0,0.501-6.404,6.183-7.845c5.682-1.441,13.162,1.396,15.226,0.622"/>
			
				<path id="XMLID_39_" style="fill:none;stroke:#FFFFFF;stroke-width:0.6843;stroke-linecap:round;stroke-linejoin:round;stroke-miterlimit:10;" d="
				M270.627,125.155c0,0-3.095,0-3.353,4.127c-0.258,4.127,2.321,5.933,2.321,5.933"/>
			
				<path id="XMLID_56_" style="fill:none;stroke:#FFFFFF;stroke-width:0.6843;stroke-linecap:round;stroke-linejoin:round;stroke-miterlimit:10;" d="
				M273.464,127.734c0,0-3.353,1.29-1.806,4.643"/>
			
				<line id="XMLID_57_" style="fill:none;stroke:#FFFFFF;stroke-width:0.6843;stroke-linecap:round;stroke-linejoin:round;stroke-miterlimit:10;" x1="271.142" y1="135.989" x2="272.432" y2="137.794"/>
		</g>
	</g>
</g>
</svg>
