<?xml version="1.0" encoding="utf-8"?>
<!-- Generator: Adobe Illustrator 27.5.0, SVG Export Plug-In . SVG Version: 6.00 Build 0)  -->
<svg version="1.1" xmlns="http://www.w3.org/2000/svg" xmlns:xlink="http://www.w3.org/1999/xlink" x="0px" y="0px"
	 viewBox="0 0 750 500" style="enable-background:new 0 0 750 500;" xml:space="preserve">
<g id="BACKGROUND">
	<g>
		<rect style="fill:none;" width="750" height="500"/>
		<path style="fill:none;" d="M0,0v259.55c3.079,0.094,6.165,0.156,9.267,0.156C161.238,259.706,286.78,146.613,306.365,0H0z"/>
		<path style="fill:#FFFFFF;" d="M570.681,500h54.935c12.01-70.75,59.943-129.263,124.385-156.115v-57.819
			C655.344,316.283,584.154,399.008,570.681,500z"/>
		<path style="fill:#FFFFFF;" d="M640.127,13.519c1.698,0,3.074,1.376,3.074,3.074c0,1.698-1.376,3.074-3.074,3.074
			c-1.698,0-3.074-1.376-3.074-3.074C637.052,14.896,638.429,13.519,640.127,13.519z M608.352,45.293
			c0,1.698,1.377,3.074,3.074,3.074s3.074-1.377,3.074-3.074c0-1.698-1.377-3.074-3.074-3.074S608.352,43.595,608.352,45.293z
			 M611.427,13.519c-1.698,0-3.074,1.376-3.074,3.074c0,1.698,1.377,3.074,3.074,3.074s3.074-1.376,3.074-3.074
			C614.501,14.896,613.125,13.519,611.427,13.519z M640.127,42.219c-1.698,0-3.074,1.376-3.074,3.074
			c0,1.698,1.377,3.074,3.074,3.074c1.698,0,3.074-1.377,3.074-3.074C643.201,43.595,641.825,42.219,640.127,42.219z
			 M665.752,16.594c0,1.698,1.376,3.074,3.074,3.074c1.698,0,3.074-1.376,3.074-3.074c0-1.698-1.376-3.074-3.074-3.074
			C667.128,13.519,665.752,14.896,665.752,16.594z M668.826,42.219c-1.698,0-3.074,1.376-3.074,3.074
			c0,1.698,1.376,3.074,3.074,3.074c1.698,0,3.074-1.377,3.074-3.074C671.901,43.595,670.524,42.219,668.826,42.219z
			 M694.452,16.594c0,1.698,1.376,3.074,3.074,3.074c1.698,0,3.074-1.376,3.074-3.074c0-1.698-1.376-3.074-3.074-3.074
			C695.828,13.519,694.452,14.896,694.452,16.594z M697.526,42.219c-1.698,0-3.074,1.376-3.074,3.074
			c0,1.698,1.376,3.074,3.074,3.074c1.698,0,3.074-1.377,3.074-3.074C700.6,43.595,699.224,42.219,697.526,42.219z M723.151,16.594
			c0,1.698,1.377,3.074,3.074,3.074c1.698,0,3.074-1.376,3.074-3.074c0-1.698-1.376-3.074-3.074-3.074
			C724.528,13.519,723.151,14.896,723.151,16.594z M726.226,42.219c-1.698,0-3.074,1.376-3.074,3.074
			c0,1.698,1.377,3.074,3.074,3.074c1.698,0,3.074-1.377,3.074-3.074C729.3,43.595,727.924,42.219,726.226,42.219z"/>
		<path style="fill:#FFFFFF;" d="M49.755,444.55c1.698,0,3.074,1.376,3.074,3.074c0,1.698-1.377,3.074-3.074,3.074
			s-3.074-1.377-3.074-3.074C46.68,445.927,48.057,444.55,49.755,444.55z M17.981,476.324c0,1.698,1.376,3.074,3.074,3.074
			c1.698,0,3.074-1.376,3.074-3.074c0-1.698-1.377-3.074-3.074-3.074C19.357,473.25,17.981,474.626,17.981,476.324z M21.055,444.55
			c-1.698,0-3.074,1.376-3.074,3.074c0,1.698,1.376,3.074,3.074,3.074c1.698,0,3.074-1.377,3.074-3.074
			C24.129,445.927,22.753,444.55,21.055,444.55z M49.755,473.25c-1.698,0-3.074,1.377-3.074,3.074c0,1.698,1.376,3.074,3.074,3.074
			s3.074-1.376,3.074-3.074C52.829,474.626,51.453,473.25,49.755,473.25z M75.38,447.625c0,1.698,1.377,3.074,3.074,3.074
			c1.698,0,3.074-1.377,3.074-3.074c0-1.698-1.376-3.074-3.074-3.074C76.757,444.55,75.38,445.927,75.38,447.625z M78.454,473.25
			c-1.698,0-3.074,1.377-3.074,3.074c0,1.698,1.377,3.074,3.074,3.074c1.698,0,3.074-1.376,3.074-3.074
			C81.529,474.626,80.152,473.25,78.454,473.25z M104.08,447.625c0,1.698,1.376,3.074,3.074,3.074c1.698,0,3.074-1.377,3.074-3.074
			c0-1.698-1.376-3.074-3.074-3.074C105.456,444.55,104.08,445.927,104.08,447.625z M107.154,473.25
			c-1.698,0-3.074,1.377-3.074,3.074c0,1.698,1.376,3.074,3.074,3.074c1.698,0,3.074-1.376,3.074-3.074
			C110.229,474.626,108.852,473.25,107.154,473.25z M132.779,447.625c0,1.698,1.376,3.074,3.074,3.074
			c1.698,0,3.074-1.377,3.074-3.074c0-1.698-1.377-3.074-3.074-3.074C134.156,444.55,132.779,445.927,132.779,447.625z
			 M135.854,473.25c-1.698,0-3.074,1.377-3.074,3.074c0,1.698,1.376,3.074,3.074,3.074c1.698,0,3.074-1.376,3.074-3.074
			C138.928,474.626,137.552,473.25,135.854,473.25z"/>
	</g>
</g>
<g id="OBJECTS">
	<g>
		<path style="fill:#292524;" d="M394.518,361.065c-0.172-0.414-0.367-0.823-0.597-1.221L255.582,120.236
			c-2.88-4.988-9.258-6.697-14.246-3.817l-107.244,61.918l-2.618-4.534l-4.912,10.687c-1.445,3.002-1.097,6.732,0.694,9.835
			l138.338,239.608c2.88,4.988,9.258,6.697,14.246,3.817l110.263-63.66c2.058-1.188,3.558-2.972,4.408-5.009l4.909-11.544
			L394.518,361.065z"/>
		<path style="fill:#FFFFFF;" d="M395.025,362.518l-110.263,63.66c-4.988,2.88-11.366,1.171-14.246-3.817L132.178,182.753
			c-2.88-4.988-1.171-11.366,3.817-14.246l110.263-63.661c4.988-2.88,11.366-1.171,14.246,3.817l138.338,239.608
			C401.722,353.26,400.013,359.638,395.025,362.518z"/>
		<g>
			<path style="fill:#F75244;" d="M178.814,148.117c-0.173,0-0.341-0.089-0.434-0.25c-0.138-0.239-0.056-0.545,0.183-0.683
				l27.944-16.134c0.237-0.138,0.544-0.057,0.683,0.183c0.138,0.239,0.056,0.545-0.183,0.683l-27.944,16.134
				C178.985,148.096,178.899,148.117,178.814,148.117z"/>
		</g>
		<path style="fill:#FFD45A;" d="M278.125,414.683c-3.622,2.091-8.27,0.846-10.361-2.776L136.537,184.615
			c-2.091-3.622-0.846-8.27,2.776-10.361l110.263-63.66c3.622-2.091,8.27-0.846,10.361,2.776l131.227,227.293
			c2.091,3.622,0.846,8.27-2.776,10.361L278.125,414.683z"/>
		<path style="fill:#FFE18D;" d="M365.537,296.274l-59.445,102.263l-27.966,16.146c-3.622,2.091-8.27,0.846-10.361-2.776
			l-8.169-14.148l82.547-142.004L365.537,296.274z M192.234,281.085l82.547-142.005l-14.844-25.711
			c-2.091-3.622-6.739-4.867-10.361-2.776l-42.064,24.286l-50.014,86.04L192.234,281.085z M318.212,214.304l-12.87-22.292
			l-82.547,142.004l12.87,22.292L318.212,214.304z"/>
		<path style="fill:#292524;" d="M356.288,350.952l-84.336,9.941c-2.897,25.592-0.489,45.295,1.184,54.705
			c1.662,0.267,3.421-0.01,4.989-0.916l101.112-58.377L356.288,350.952z"/>
		<path style="fill:#2356A7;" d="M162.904,244.792L162.904,244.792c-0.497,0.287-1.133,0.117-1.42-0.381l-9.106-15.772
			c-0.287-0.497-0.117-1.133,0.381-1.42l0,0c0.497-0.287,1.133-0.117,1.421,0.381l9.106,15.772
			C163.572,243.868,163.402,244.504,162.904,244.792z M175.893,265.209l-9.106-15.772c-0.287-0.497-0.923-0.668-1.42-0.381l0,0
			c-0.497,0.287-0.668,0.923-0.381,1.42l9.106,15.772c0.287,0.497,0.923,0.668,1.42,0.381l0,0
			C176.01,266.342,176.18,265.706,175.893,265.209z M340.206,398.818L340.206,398.818c-0.254-0.441-0.818-0.592-1.258-0.337
			l-10.37,5.987c-0.441,0.254-0.591,0.818-0.337,1.258l0,0c0.254,0.441,0.818,0.591,1.258,0.337l10.37-5.987
			C340.309,399.821,340.46,399.258,340.206,398.818z M320.6,409.073c-0.954,0.551-1.521,1.354-1.266,1.795
			c0.254,0.441,1.234,0.351,2.187-0.199c0.954-0.551,1.52-1.354,1.266-1.795C322.533,408.433,321.554,408.523,320.6,409.073z"/>
		<g>
			<g>
				<path style="fill:#2F2552;" d="M276.886,169.102c0,0-1.866,0.689-4.952,1.252c0.188,2.269,0.056,3.642,0.056,3.642
					L276.886,169.102z"/>
			</g>
			<g>
				<path style="fill:#292524;" d="M270.773,163.912c-1.553-5.635-4.968-12.829-12.394-19.414
					c-15.185-13.466-33.535,7.484-17.477,19.197c6.627,4.834,13.545,6.717,19.527,7.222c-8.432,2.635-20.566,7.565-18.899,13.764
					c2,7.436,17.514-5.089,23.876-10.615C265.954,169.945,267.977,166.71,270.773,163.912z"/>
			</g>
			<path style="fill:#292524;" d="M268.526,303.989l-50.318-3.907c-3.553-5.335-1.998-12.179,0.353-18.142
				c2.351-5.963,5.612-11.863,5.498-18.272c-0.139-7.856-5.321-14.742-6.74-22.47c-1.536-8.365,1.569-17.107,6.819-23.799
				c2.274-2.899,5.128-6.112,8.198-8.184c3.158-2.131,6.75-3.523,9.865-5.819c6.206-4.574,11.461-10.447,15.26-17.16
				c3.95-6.979,6.369-14.821,11.042-21.338c8.053-11.229,22.81-17.221,36.412-14.786c13.602,2.435,25.363,13.174,29.021,26.499
				c2.376,8.656,1.519,17.814,1.36,26.789c-0.27,15.275,1.688,31.015,9.078,44.386L268.526,303.989z"/>
			<path style="fill:#2356A7;" d="M339.204,235.508l-17.273-1.969l-44.088,0.193l-24.864,6.536
				c0.021,15.505,18.973,120.626,18.973,120.626l84.336-9.941C356.288,350.952,345.275,266.61,339.204,235.508z"/>
			<g>
				<g>
					<g>
						<g>
							<path style="fill:#2356A7;" d="M289.345,230.933l-11.502,2.799c0,0,22.334,20.218,33.137,16.852
								c10.803-3.366,10.951-17.045,10.951-17.045l-8.539-0.744L289.345,230.933z"/>
						</g>
						<g>
							<g>
								<path style="fill:#F7969D;" d="M287.165,231.463l-8.109-24.784c0,0-12.905,6.552-15.516-4.374
									c-2.326-9.735,8.306-11.985,14.114-8.068c0,0-14.09-33.161,15.346-40.06c29.437-6.899,35.422,33.902,36.914,43.769
									c2.63,17.379-8.697,27.477-17.607,29.603l2.185,10.576c0,0,1.948,8.89-6.709,10.818
									C292.044,252.447,287.165,231.463,287.165,231.463z"/>
							</g>
						</g>
						<g>
							<path style="fill:#292524;" d="M318.345,181.131c2.042-2.571-6.537-3.54-6.614-1.887
								C311.654,180.898,317.142,182.645,318.345,181.131z"/>
						</g>
						<g>
							<path style="fill:#292524;" d="M296.382,183.023c-0.385,3.26,7.422-0.425,6.618-1.872
								C302.196,179.704,296.609,181.103,296.382,183.023z"/>
						</g>
						<g>
							<g>
								<path style="fill:#292524;" d="M298.141,191.126c-0.004,1.786,1.441,3.238,3.228,3.243c1.786,0.004,3.238-1.441,3.243-3.228
									c0.004-1.786-1.441-3.238-3.227-3.243C299.597,187.895,298.145,189.339,298.141,191.126z"/>
							</g>
						</g>
						<g>
							<g>
								<path style="fill:#292524;" d="M313.878,188.75c-0.004,1.786,1.441,3.238,3.227,3.242c1.787,0.005,3.239-1.441,3.243-3.227
									c0.004-1.787-1.441-3.239-3.228-3.243C315.335,185.518,313.882,186.963,313.878,188.75z"/>
							</g>
						</g>
						<g>
							<path style="fill:#2F2552;" d="M276.15,202.321c0.052,0,0.104-0.007,0.158-0.019c0.4-0.091,0.65-0.489,0.559-0.889
								c-0.441-1.944-1.862-3.624-3.705-4.387c-1.845-0.763-4.035-0.575-5.722,0.488c-0.346,0.22-0.451,0.679-0.233,1.025
								c0.222,0.346,0.679,0.447,1.026,0.233c1.287-0.814,2.955-0.957,4.361-0.375c1.406,0.583,2.487,1.864,2.825,3.347
								C275.498,202.089,275.808,202.324,276.15,202.321z"/>
						</g>
						<g>
							<path style="fill:#D65258;" d="M312.309,227.549c-10.591,1.938-18.082-2.021-18.082-2.021s5.033,6.123,18.703,5.03
								L312.309,227.549z"/>
						</g>
						<g>
							<path style="fill:#F75244;" d="M297.437,200.23c-0.208,1.29-1.423,2.167-2.714,1.958c-1.29-0.208-2.167-1.423-1.958-2.714
								c0.208-1.29,1.423-2.167,2.714-1.958C296.769,197.725,297.646,198.94,297.437,200.23z"/>
						</g>
						<g>
							<path style="fill:#F75244;" d="M325.727,198.265c-0.209,1.29-1.423,2.167-2.714,1.958c-1.29-0.208-2.167-1.424-1.958-2.714
								c0.209-1.29,1.424-2.167,2.714-1.958C325.059,195.76,325.935,196.975,325.727,198.265z"/>
						</g>
					</g>
				</g>
			</g>
			<path style="fill:#D65258;" d="M320.449,167.061l-26.854,4.74c11.176,4.732,23.307,3.046,29.962,1.47
				C322.651,171.137,321.621,169.043,320.449,167.061z"/>
			<path style="fill:#292524;" d="M270.581,176.214c0,0,1.712-19.413,22.939-23.904c21.227-4.491,33.083,17.828,33.083,17.828
				c-14.388,5.908-33.007,1.662-33.007,1.662c0.412,12.171-8.697,17.045-8.697,17.045s3.874,20.305,2.267,42.617
				c0,0-19.684-13.9-25.466-25.565C255.917,194.233,270.581,176.214,270.581,176.214z"/>
		</g>
		<path style="fill:#F7969D;" d="M201.65,121.372c0,0,0.668-4.669,1.495-9.304c0.827-4.634,4.729-15.517,2.577-16.993
			c-2.153-1.476-7.575,11.415-7.575,11.415s-7.14-23.414-10.04-23.675c-3.44-0.309,1.407,15.408,1.407,15.408
			s-8.288-15.791-10.712-15.452c-2.424,0.339,4.83,16.101,4.83,16.101s-10.499-15.151-12.69-14.71
			c-2.191,0.441,6.562,15.714,6.562,15.714s-8.779-12.518-10.854-11.427c-2.076,1.091,18.155,38.353,18.155,38.353L201.65,121.372z"
			/>
		<path style="fill:#FFFFFF;" d="M301.265,200.594c0,0-2.959,6.387,2.704,8.743c5.663,2.356,9.322-3.738,9.322-3.738
			L301.265,200.594z"/>
		<path style="fill:#2356A7;" d="M287.165,231.463l-76.438-8.41l-1.552-101.669H176.08c0,0-7.946,116.345-1.044,123.928
			c6.901,7.583,85.938,31.616,85.938,31.616L287.165,231.463z"/>
		<path style="fill:#F7969D;" d="M375.864,213.87c-2.771-4.663-7.596-6.271-8.56-4.342c-0.965,1.93,3.404,8.142,5.24,12.272
			s7.355,22.359,7.355,22.359l20.553-4.752l-1.415-12.626L375.864,213.87z"/>
		<path style="fill:#2356A7;" d="M339.204,235.508c14.347,2.241,50.405,54.565,50.405,54.565l-13.777-47.011l30.236-6.235
			c0,0,31.801,82.079,6.467,100.607c-25.334,18.529-73.331-49.796-73.331-49.796V235.508z"/>
		<g>
			
				<ellipse transform="matrix(0.9941 -0.1085 0.1085 0.9941 -15.3572 47.89)" style="fill:#F75244;" cx="432.344" cy="165.049" rx="12.704" ry="12.704"/>
			<path style="fill:#241213;" d="M432.349,152.346c-1.619-0.002-3.264,0.304-4.853,0.96c-1.939,0.8-3.566,2.032-4.835,3.529
				c2.688,6.368,6.24,12.371,10.569,17.76c0.748,0.931,1.545,1.849,2.388,2.718c0.528-0.142,1.054-0.306,1.573-0.52
				c3.892-1.607,6.547-4.928,7.48-8.727C439.664,163.622,435.456,158.276,432.349,152.346z"/>
			<polygon style="fill:#F75244;" points="367.63,182.381 353.789,191.438 359.096,204.294 375.296,200.951 			"/>
			<path style="fill:#2356A7;" d="M371.067,204.001c0,0,4.823,11.683,7.246,17.555c2.424,5.872,5.709,10.382,10.035,8.596
				c3.383-1.396,1.889-5.165,0.165-12.294c-1.684-6.965-1.615-19.638-1.615-19.638L371.067,204.001z"/>
			<path style="fill:#241213;" d="M372.382,207.187l14.751-0.622c-0.256-4.565-0.236-8.345-0.236-8.345l-15.831,5.781
				C371.067,204.001,371.593,205.275,372.382,207.187z"/>
			<polygon style="fill:#FFC83A;" points="379.142,170.915 356.75,185.567 365.335,206.367 391.543,200.958 			"/>
			<polygon style="fill:#F75244;" points="379.142,170.915 391.543,200.958 456.819,213.064 416.872,116.289 			"/>
			<polygon style="fill:#FFD45A;" points="447.367,211.311 451.777,212.129 413.957,120.508 411.408,124.199 			"/>
		</g>
		<path style="fill:#F7969D;" d="M393.346,205.237c-5.572,0.364-13.386,12.172-12.88,14.584c0.506,2.412,5.652-0.607,5.652-0.607
			s-2.251,5.323-0.563,6.503c1.688,1.18,3.779-1.393,3.779-1.393s-2.888,5.69-1.447,7.14c1.441,1.45,5.459-2.316,5.459-2.316
			s-1.334,4.993,0.463,5.633c1.797,0.639,12.41-11.422,11.124-12.869s-4.195-1.075-4.195-1.075s3.551-6.326,1.622-7.772
			c-1.93-1.445-4.02,0.967-4.02,0.967s1.93-4.484,0.322-5.941c-1.608-1.456-3.957,1.117-3.957,1.117
			S395.263,205.111,393.346,205.237z"/>
		<g>
			<path style="fill:#D65258;" d="M193.082,117.294c-0.275,0-0.536-0.163-0.647-0.433c-1.722-4.171-5.523-7.396-9.919-8.417
				c-0.376-0.087-0.611-0.463-0.523-0.84c0.087-0.376,0.462-0.612,0.84-0.523c4.83,1.121,9.005,4.664,10.896,9.247
				c0.148,0.357-0.022,0.767-0.38,0.914C193.261,117.277,193.171,117.294,193.082,117.294z"/>
		</g>
		<g>
			<path style="fill:#D65258;" d="M310.928,200.012c-0.155,0-0.32-0.01-0.497-0.031c-0.384-0.046-0.657-0.396-0.61-0.779
				c0.047-0.384,0.396-0.65,0.779-0.61c0.842,0.102,1.021-0.177,1.079-0.268c0.88-1.378-1.638-6.71-3.708-10.056
				c-0.204-0.329-0.102-0.76,0.227-0.963c0.328-0.201,0.761-0.102,0.963,0.227c0.91,1.47,5.364,8.937,3.697,11.546
				C312.575,199.521,312.015,200.012,310.928,200.012z"/>
		</g>
		<g>
			<path style="fill:#292524;" d="M305.813,255.282c-10.108,0-18.381-5.714-23.45-16.274c-0.168-0.348-0.021-0.767,0.328-0.934
				c0.349-0.167,0.767-0.021,0.934,0.328c5.149,10.726,13.74,16.2,24.183,15.403c4.064-0.309,7.123-1.849,9.09-4.577
				c2.522-3.497,2.571-8.135,1.776-11.31c-0.094-0.375,0.134-0.755,0.509-0.849c0.375-0.095,0.755,0.134,0.849,0.509
				c1.129,4.507,0.381,9.169-1.999,12.469c-2.189,3.035-5.688,4.817-10.119,5.154C307.205,255.256,306.504,255.282,305.813,255.282z
				"/>
		</g>
		<g>
			<path style="fill:#292524;" d="M350.381,298.881c-0.197,0-0.392-0.083-0.531-0.243c-0.253-0.293-0.22-0.735,0.073-0.987
				c12.964-11.172-5.51-37.561-5.698-37.826c-0.224-0.315-0.149-0.753,0.166-0.977c0.315-0.223,0.752-0.148,0.976,0.166
				c0.049,0.068,4.883,6.931,7.975,15.146c4.163,11.063,3.296,19.552-2.505,24.552C350.706,298.825,350.543,298.881,350.381,298.881
				z"/>
		</g>
	</g>
	<g>
		<g>
			<path style="fill:#F75244;" d="M453.283,109.868l-4.882-0.246c-12.288-0.618-14.665-4.737-15.561-6.287
				c-2.088-3.616-0.849-8.241,2.768-10.329c2.643-1.526,5.824-1.275,8.16,0.382c-0.267-2.851,1.107-5.732,3.749-7.258
				c3.616-2.088,8.241-0.849,10.329,2.768c2.255,3.906,1.04,8.421-0.27,11.919c-0.907,2.422-1.949,4.475-2.065,4.701
				L453.283,109.868z"/>
		</g>
		<g>
			<path style="fill:#F75244;" d="M497.232,92.818l-3.039-0.153c-7.648-0.385-9.128-2.948-9.685-3.913
				c-1.299-2.251-0.528-5.129,1.723-6.429c1.645-0.95,3.625-0.794,5.079,0.238c-0.166-1.775,0.689-3.568,2.334-4.517
				c2.251-1.3,5.129-0.528,6.429,1.723c1.403,2.431,0.647,5.241-0.168,7.418c-0.565,1.508-1.213,2.785-1.285,2.926L497.232,92.818z"
				/>
		</g>
		<g>
			<path style="fill:#F75244;" d="M491.06,142.95l-7.132-0.359c-17.95-0.904-21.423-6.92-22.731-9.185
				c-3.05-5.283-1.24-12.039,4.043-15.089c3.86-2.229,8.508-1.863,11.92,0.558c-0.39-4.165,1.616-8.373,5.477-10.602
				c5.283-3.05,12.039-1.24,15.089,4.043c3.294,5.705,1.519,12.302-0.395,17.411c-1.325,3.538-2.847,6.537-3.017,6.867
				L491.06,142.95z"/>
		</g>
	</g>
	<g>
		
			<rect x="452.984" y="221.295" transform="matrix(0.866 -0.5 0.5 0.866 -78.0124 304.729)" style="fill:#BDD8F3;" width="153.285" height="153.285"/>
		
			<rect x="465.05" y="262.413" transform="matrix(0.866 -0.5 0.5 0.866 -80.3657 307.0827)" style="fill:#FAFAFC;" width="135.582" height="82.185"/>
		<g>
			<path style="fill:#F75244;" d="M512.425,386.146l-2.707-0.136c-6.814-0.343-8.133-2.627-8.629-3.487
				c-1.158-2.005-0.471-4.57,1.535-5.728c1.465-0.846,3.23-0.707,4.525,0.212c-0.148-1.581,0.614-3.179,2.079-4.025
				c2.006-1.158,4.57-0.471,5.728,1.535c1.25,2.166,0.577,4.67-0.15,6.61c-0.503,1.343-1.081,2.481-1.145,2.607L512.425,386.146z"/>
		</g>
		<path style="fill:#FFFFFF;" d="M534.42,370.208c0.199-1.327-0.01-2.674-0.696-3.864c-1.795-3.109-6.149-3.955-9.725-1.89
			c-3.576,2.065-5.02,6.259-3.226,9.367c1.795,3.109,6.149,3.955,9.725,1.89c1.461-0.844,2.559-2.045,3.233-3.38l2.522-0.279
			c0.249-0.028,0.331-0.35,0.124-0.492L534.42,370.208z"/>
		<path style="fill:#7FC89B;" d="M464.678,271.464c3.421,5.926,1.391,13.504-4.535,16.925c-5.926,3.421-13.504,1.391-16.925-4.535
			c-3.422-5.926-1.391-13.504,4.535-16.925C453.679,263.508,461.257,265.538,464.678,271.464z"/>
		<path style="fill:#FFFFFF;" d="M493.962,254.467l-20.278,11.708c-1.057,0.61-2.409,0.248-3.02-0.809l0,0
			c-0.61-1.057-0.248-2.409,0.809-3.02l20.278-11.707c1.057-0.61,2.409-0.248,3.02,0.809l0,0
			C495.382,252.504,495.02,253.856,493.962,254.467z"/>
		<path style="fill:#FFFFFF;" d="M524.478,249.934l-44.334,25.596c-1.495,0.863-3.407,0.351-4.271-1.144l0,0
			c-0.863-1.495-0.351-3.407,1.144-4.271l44.334-25.596c1.495-0.863,3.407-0.351,4.271,1.144l0,0
			C526.485,247.159,525.973,249.071,524.478,249.934z"/>
		<polygon style="fill:#FFFFFF;" points="622.23,322.75 615.688,321.417 613.571,327.749 607.537,317.297 616.195,312.298 		"/>
	</g>
	<g>
		<path style="fill:#292524;" d="M547.257,215.085c7.273,0,14.099-1.897,20.024-5.213l-9.602-16.631l-29.602,17.091
			C533.804,213.363,540.328,215.085,547.257,215.085z"/>
		
			<ellipse transform="matrix(0.1623 -0.9867 0.9867 0.1623 286.9515 680.0696)" style="fill:#FFD45A;" cx="543.991" cy="171.04" rx="41.079" ry="41.079"/>
		<polygon style="fill:#FCFFFD;" points="530.275,145.975 546.061,156.516 563.694,149.487 558.547,167.758 570.681,182.356 
			551.714,183.107 541.58,199.158 535.004,181.351 516.608,176.673 531.511,164.917 		"/>
	</g>
	<g>
		<path style="fill:#7FC89B;" d="M113.982,299.44c-5.622-9.738-2.286-22.191,7.453-27.813c9.738-5.622,22.191-2.286,27.813,7.453
			c5.622,9.738,2.286,22.191-7.452,27.813C132.057,312.515,119.605,309.179,113.982,299.44z"/>
		<path style="fill:#FFFFFF;" d="M133.71,288.051c0.668,1.157,0.272,2.636-0.885,3.304c-1.157,0.668-2.636,0.272-3.304-0.885
			c-0.668-1.157-0.271-2.636,0.885-3.304C131.563,286.497,133.042,286.894,133.71,288.051z M123.067,291.403
			c-1.157,0.668-1.553,2.147-0.885,3.304c0.668,1.157,2.147,1.553,3.304,0.885c1.157-0.668,1.553-2.147,0.885-3.304
			C125.703,291.131,124.223,290.735,123.067,291.403z M140.164,287.117c1.157-0.668,1.553-2.147,0.885-3.304
			c-0.668-1.157-2.147-1.553-3.304-0.885c-1.157,0.668-1.553,2.147-0.885,3.304C137.528,287.389,139.007,287.785,140.164,287.117z"
			/>
	</g>
	<g>
		<path style="fill:#7FC89B;" d="M352.164,52.485c-22.979,0-41.608,18.628-41.608,41.608c0,16.867,10.042,31.379,24.469,37.911
			l-2.089,16.295l11.377-13.349c2.543,0.486,5.166,0.75,7.851,0.75c22.979,0,41.608-18.628,41.608-41.608
			S375.143,52.485,352.164,52.485z"/>
		<g>
			<path style="fill:#FFFFFF;" d="M347.773,72.38c0.601,0.329,1.098,0.95,1.495,1.862c1.073,2.557,2.177,5.134,3.309,7.732
				c1.132,2.597,2.268,5.146,3.408,7.644c1.138,2.498,2.264,4.879,3.378,7.14c1.115,2.263,2.176,4.349,3.186,6.259
				c0.359,0.663,0.462,1.182,0.305,1.556c-0.156,0.376-0.604,0.753-1.341,1.133c-0.846,0.523-1.661,0.961-2.446,1.314
				c-0.787,0.353-1.593,0.644-2.424,0.871c-0.877,0.225-1.583,0.235-2.115,0.033c-0.534-0.202-1.074-0.738-1.62-1.608
				c-1.144-1.696-2.444-3.732-3.897-6.113c-1.455-2.379-2.915-4.858-4.384-7.438c-1.468-2.578-2.9-5.142-4.294-7.692
				c-1.397-2.549-2.619-4.854-3.669-6.915c-0.514-0.992-0.653-1.761-0.413-2.305c0.239-0.543,0.904-1.045,1.993-1.505
				c0.966-0.492,2.086-0.957,3.359-1.395c1.272-0.437,2.457-0.725,3.554-0.866C346.299,71.953,347.171,72.051,347.773,72.38z
				 M357.544,114.508c-0.184-0.703-0.189-1.426-0.011-2.172c0.177-0.744,0.556-1.459,1.138-2.145
				c0.581-0.687,1.392-1.285,2.435-1.798c0.866-0.448,1.677-0.693,2.433-0.74c0.757-0.045,1.426,0.048,2.007,0.277
				c0.582,0.23,1.066,0.547,1.452,0.95c0.386,0.406,0.667,0.81,0.844,1.215c0.132,0.306,0.233,0.718,0.303,1.241
				c0.071,0.524,0.066,1.067-0.014,1.632c-0.081,0.566-0.26,1.149-0.54,1.753c-0.281,0.602-0.707,1.16-1.279,1.673
				c-1.199,1.124-2.532,1.731-3.996,1.825c-1.464,0.094-2.73-0.507-3.799-1.802C358.053,115.848,357.729,115.211,357.544,114.508z"
				/>
		</g>
	</g>
	<g>
		
			<ellipse transform="matrix(0.2446 -0.9696 0.9696 0.2446 251.5677 755.005)" style="fill:#7FC89B;" cx="610.356" cy="216.043" rx="21.369" ry="21.369"/>
		<g>
			<path style="fill:#FFFFFF;" d="M613.572,210.636c-0.197,1.031-0.4,2.124-0.609,3.28c-0.21,1.154-0.416,2.342-0.621,3.562
				c-0.206,1.219-0.393,2.384-0.563,3.49c-0.169,1.107-0.313,2.13-0.431,3.066c-0.12,0.935-0.2,1.699-0.242,2.291
				c-0.069,0.256-0.161,0.407-0.279,0.449c-0.118,0.042-0.319,0.062-0.604,0.061c-0.522-0.067-0.932-0.222-1.232-0.467
				c-0.299-0.244-0.443-0.703-0.432-1.377c0.043-0.676,0.121-1.567,0.233-2.675c0.111-1.107,0.252-2.315,0.423-3.623
				c0.171-1.308,0.358-2.666,0.561-4.077c0.204-1.41,0.419-2.757,0.646-4.039c-0.354,0.572-0.794,1.046-1.318,1.424
				c-0.524,0.378-1.1,0.631-1.726,0.759c0.23,0.401,0.439,0.827,0.626,1.278c0.185,0.452,0.325,0.91,0.417,1.373
				c0.092,0.464,0.134,0.925,0.121,1.381c-0.01,0.457-0.101,0.886-0.272,1.284c-0.344,0.734-0.924,1.275-1.737,1.629
				c-0.3,0.089-0.616,0.175-0.951,0.262c-0.335,0.084-0.661,0.127-0.978,0.124c-0.26-0.015-0.54-0.066-0.84-0.151
				c-0.299-0.087-0.579-0.196-0.84-0.329c-0.542-0.303-1.021-0.75-1.434-1.335c-0.415-0.587-0.733-1.242-0.957-1.962
				c-0.225-0.722-0.34-1.469-0.345-2.243c-0.005-0.773,0.126-1.494,0.389-2.165c0.133-0.292,0.338-0.566,0.616-0.818
				c0.28-0.252,0.559-0.427,0.838-0.522c0.452-0.143,0.876-0.233,1.271-0.27c0.396-0.037,0.757-0.033,1.084,0.012
				c0.33,0.111,0.783,0.29,1.362,0.54c0.684,0.289,1.408,0.256,2.169-0.101c0.315-0.148,0.644-0.372,0.989-0.671
				c0.345-0.298,0.672-0.659,0.979-1.078c0.309-0.419,0.591-0.891,0.847-1.416c0.257-0.523,0.453-1.074,0.586-1.651
				c0.122-0.654,0.509-0.837,1.161-0.545c0.596,0.221,1.051,0.539,1.363,0.951c0.313,0.414,0.399,0.96,0.258,1.641
				C613.945,208.717,613.769,209.604,613.572,210.636z M603.177,212.508c-0.07,0.225-0.114,0.504-0.129,0.836
				c-0.016,0.337-0.001,0.694,0.045,1.075c0.046,0.384,0.114,0.74,0.205,1.073c0.294,0.912,0.623,1.642,0.986,2.182
				c0.362,0.541,0.701,0.781,1.014,0.715c0.32-0.049,0.506-0.35,0.558-0.896c0.051-0.547-0.082-1.296-0.397-2.249
				c-0.146-0.397-0.303-0.783-0.468-1.156c-0.165-0.372-0.336-0.699-0.515-0.98c-0.166-0.287-0.333-0.525-0.499-0.712
				c-0.167-0.188-0.333-0.266-0.5-0.236C603.348,212.168,603.247,212.283,603.177,212.508z M619.431,215.324
				c0.139,0.228,0.27,0.474,0.389,0.739c0.184,0.379,0.335,0.77,0.454,1.176c0.119,0.408,0.195,0.823,0.229,1.244
				c0.036,0.422,0.023,0.842-0.036,1.259c-0.059,0.419-0.181,0.814-0.365,1.188c-0.366,0.695-0.919,1.181-1.66,1.459
				c-0.297,0.122-0.595,0.222-0.891,0.301c-0.295,0.081-0.586,0.118-0.871,0.116c-0.428,0.013-0.83-0.092-1.209-0.316
				c-0.379-0.222-0.717-0.525-1.01-0.906c-0.295-0.381-0.537-0.828-0.727-1.346c-0.19-0.516-0.318-1.055-0.384-1.618
				c-0.067-0.563-0.058-1.134,0.023-1.717c0.082-0.579,0.256-1.13,0.523-1.652c0.145-0.267,0.357-0.52,0.638-0.757
				c0.281-0.236,0.557-0.409,0.829-0.515c0.355-0.106,0.724-0.182,1.107-0.227c0.383-0.045,0.701-0.049,0.955-0.014
				c0.354,0.063,0.661,0.177,0.924,0.342c0.263,0.166,0.478,0.367,0.647,0.603C619.148,214.882,619.292,215.097,619.431,215.324z
				 M616.137,215.773c-0.088,0.211-0.154,0.469-0.201,0.78c-0.046,0.31-0.063,0.642-0.053,0.993
				c0.011,0.353,0.049,0.684,0.114,0.999c0.065,0.43,0.149,0.815,0.253,1.154c0.105,0.34,0.227,0.645,0.365,0.915
				c0.25,0.49,0.531,0.703,0.846,0.639c0.275-0.043,0.459-0.324,0.551-0.844c0.092-0.52,0.051-1.205-0.123-2.055
				c-0.047-0.341-0.128-0.69-0.243-1.05c-0.115-0.357-0.241-0.677-0.378-0.957c-0.136-0.28-0.278-0.502-0.423-0.668
				c-0.146-0.168-0.274-0.243-0.384-0.229C616.333,215.456,616.225,215.564,616.137,215.773z"/>
		</g>
	</g>
	<path style="fill:#FFFFFF;" d="M538.874,347.472l-21.283,12.288l63.218-108.753l7.046,12.204L538.874,347.472z M492.639,279.267
		l-26.124,44.941l19.018,32.94l64.551-111.046L492.639,279.267z M600.957,285.904l-22.508,38.72l33.647-19.426L600.957,285.904z"/>
	<g>
		<path style="fill:#292524;" d="M236.912,384.254c2.63-6.169,4.089-12.957,4.089-20.087c0-26.21-19.675-47.81-45.059-50.874
			L236.912,384.254z"/>
		<g>
			<circle style="fill:#F75244;" cx="187.533" cy="360.74" r="51.261"/>
		</g>
		<g>
			<path style="fill:#FFFFFF;" d="M202.024,384.136l-9.689-0.488c-24.387-1.228-29.105-9.401-30.882-12.479
				c-4.144-7.177-1.684-16.356,5.493-20.499c5.245-3.028,11.559-2.53,16.195,0.758c-0.53-5.659,2.196-11.376,7.441-14.404
				c7.177-4.144,16.356-1.684,20.499,5.493c4.475,7.751,2.064,16.713-0.536,23.655c-1.8,4.807-3.868,8.881-4.098,9.329
				L202.024,384.136z"/>
		</g>
	</g>
	<g>
		<path style="fill:#292524;" d="M467.408,343.457l30.401,52.656c0.985-3.601,1.522-7.387,1.522-11.301
			C499.33,364.945,485.774,348.247,467.408,343.457z"/>
		<circle style="fill:#FFD45A;" cx="454.448" cy="381.469" r="42.739"/>
		<g>
			<path style="fill:#FFFFFF;" d="M439.086,364.785c-0.875-1.618-1.564-2.996-2.069-4.137c-0.636-1.643,0.015-2.638,1.95-2.983
				c1.512-0.291,2.95-0.218,4.316,0.219s2.525,1.425,3.48,2.963c0.398,0.663,0.841,1.384,1.332,2.168
				c0.49,0.782,0.947,1.571,1.373,2.366c0.875-0.239,1.922-0.411,3.143-0.518c1.618-0.079,2.869,0.153,3.758,0.696
				c0.888,0.544,1.625,1.135,2.208,1.77c0.449,0.505,0.934,1.108,1.451,1.81c0.518,0.703,1.015,1.426,1.492,2.168
				c0.476,0.743,0.895,1.48,1.253,2.207c0.357,0.729,0.642,1.387,0.855,1.969c0.238,1.141-0.187,1.962-1.273,2.466
				c-0.769,0.345-1.526,0.609-2.269,0.795c-0.741,0.187-1.451,0.272-2.127,0.259c-0.677-0.013-1.313-0.159-1.909-0.438
				c-0.596-0.279-1.148-0.723-1.651-1.333c-0.45-0.661-0.995-1.431-1.63-2.306c-0.636-0.875-1.286-1.539-1.948-1.988
				c-0.319-0.319-0.623-0.438-0.915-0.36c-0.371,0.16-0.656,0.551-0.855,1.173c-0.2,0.624-0.318,1.341-0.359,2.148
				c-0.04,0.81,0.034,1.665,0.219,2.566c0.186,0.903,0.497,1.729,0.934,2.487c0.438,0.755,1.021,1.379,1.75,1.868
				c0.73,0.491,1.625,0.71,2.685,0.657c1.697-0.16,3.427-0.484,5.19-0.975c1.763-0.491,3.434-0.848,5.012-1.073
				c1.577-0.226,2.983-0.172,4.216,0.159c1.235,0.332,2.183,1.227,2.844,2.684c0.186,0.664,0.345,1.433,0.476,2.307
				c0.133,0.876,0.128,1.81-0.019,2.804c-0.146,0.996-0.477,2.03-0.995,3.102c-0.516,1.076-1.319,2.155-2.407,3.242l-0.516,0.516
				c-0.292,0.293-0.464,0.439-0.518,0.439c0.61,1.086,1.266,2.194,1.969,3.32c0.702,1.129,1.332,2.103,1.889,2.924
				c0.345,0.556,0.424,0.995,0.238,1.313c-0.186,0.318-0.677,0.609-1.471,0.875c-1.38,0.477-2.691,0.438-3.938-0.12
				c-1.245-0.556-2.32-1.338-3.221-2.346c-0.345-0.398-0.656-0.762-0.934-1.094c-0.279-0.33-0.525-0.708-0.736-1.133
				c-1.061,0.371-2.148,0.691-3.263,0.954c-1.113,0.266-2.319,0.385-3.618,0.357c-1.697,0-2.718-0.172-3.063-0.516
				c-0.425-0.371-0.583-0.875-0.477-1.512c0.132-0.504,0.364-1,0.695-1.491c0.333-0.491,0.717-0.926,1.155-1.313
				c0.438-0.384,0.92-0.709,1.451-0.975c0.531-0.265,1.061-0.45,1.591-0.556c1.273-0.37,2.448-0.788,3.521-1.253
				c1.073-0.463,2.001-0.954,2.784-1.47c0.782-0.518,1.393-1.021,1.83-1.512s0.67-0.962,0.695-1.412
				c0.053-0.583-0.318-0.836-1.114-0.757c-0.795,0.08-1.829,0.306-3.102,0.677c-1.273,0.372-2.684,0.776-4.236,1.214
				c-1.551,0.438-3.057,0.75-4.514,0.935c-2.016,0.263-3.943,0.072-5.787-0.577c-1.844-0.651-3.375-1.957-4.594-3.919
				c-0.927-1.935-1.598-4.17-2.009-6.702c-0.411-2.532-0.283-5.057,0.378-7.578c0.16-0.583,0.397-1.165,0.716-1.749
				c0.319-0.584,0.729-1.154,1.232-1.711C440.81,367.994,439.961,366.403,439.086,364.785z"/>
		</g>
	</g>
	
	<g>
		<g>
			<path style="fill:#BAD9F6;" d="M137.633,414.524c0,0.635-0.514,1.148-1.148,1.148h-10.321c-0.635,0-1.148-0.514-1.148-1.148
				v-9.172h-9.171c-0.634,0-1.148-0.514-1.148-1.148v-9.171h-9.172c-0.635,0-1.149-0.514-1.149-1.148v-10.32
				c0-0.635,0.514-1.149,1.149-1.149c0.635,0,1.148,0.514,1.148,1.149v9.172h9.172c0.635,0,1.148,0.514,1.148,1.148v9.171h9.171
				c0.635,0,1.148,0.513,1.148,1.149v9.172h9.172C137.12,413.376,137.633,413.889,137.633,414.524z"/>
		</g>
		<path style="fill:#BAD9F6;" d="M599.951,102.687c-1.989,0-3.859-0.774-5.264-2.18c-0.449-0.449-0.449-1.175,0-1.624
			c0.449-0.449,1.175-0.449,1.624,0c1.945,1.943,5.335,1.946,7.279,0c2.813-2.814,7.718-2.812,10.528,0
			c2.008,2.006,5.274,2.004,7.28,0c2.809-2.812,7.715-2.814,10.528,0c0.449,0.448,0.449,1.175,0,1.624
			c-0.449,0.448-1.175,0.448-1.624,0c-1.945-1.945-5.336-1.945-7.28,0c-2.901,2.904-7.625,2.904-10.528,0
			c-1.944-1.945-5.336-1.945-7.28,0C603.809,101.913,601.94,102.687,599.951,102.687z M605.214,112.166
			c1.945-1.945,5.336-1.945,7.28,0c2.903,2.903,7.627,2.903,10.528,0c1.944-1.945,5.336-1.945,7.28,0
			c0.448,0.449,1.175,0.449,1.624,0c0.449-0.448,0.449-1.175,0-1.624c-2.814-2.814-7.719-2.811-10.528,0
			c-2.007,2.005-5.273,2.005-7.28,0c-2.81-2.811-7.716-2.814-10.528,0c-1.945,1.946-5.335,1.944-7.279,0
			c-0.448-0.449-1.175-0.449-1.624,0c-0.449,0.449-0.449,1.176,0,1.624c1.405,1.406,3.275,2.18,5.264,2.18
			C601.94,114.346,603.809,113.573,605.214,112.166z"/>
		<g>
			<path style="fill:#BAD9F6;" d="M97.082,232.592c-0.305,0-0.597-0.121-0.812-0.336l-8.636-8.638c-0.449-0.448-0.449-1.175,0-1.624
				l8.636-8.636c0.449-0.449,1.175-0.449,1.624,0l8.636,8.636c0.448,0.449,0.448,1.175,0,1.624l-8.636,8.638
				C97.679,232.471,97.388,232.592,97.082,232.592z M90.07,222.806l7.012,7.013l7.013-7.013l-7.013-7.012L90.07,222.806z"/>
		</g>
		<g>
			<path style="fill:#BAD9F6;" d="M542.601,92.37h-12.214c-0.635,0-1.148-0.514-1.148-1.148V79.008c0-0.635,0.513-1.148,1.148-1.148
				h12.214c0.635,0,1.148,0.513,1.148,1.148v12.213C543.749,91.857,543.236,92.37,542.601,92.37z M531.536,90.074h9.917v-9.917
				h-9.917V90.074z"/>
		</g>
		<g>
			<path style="fill:#BAD9F6;" d="M387.133,417.126c-4,0-7.255-3.254-7.255-7.255c0-4.001,3.254-7.256,7.255-7.256
				c4.001,0,7.256,3.254,7.256,7.256C394.388,413.872,391.134,417.126,387.133,417.126z M387.133,404.912
				c-2.734,0-4.958,2.225-4.958,4.959c0,2.734,2.224,4.958,4.958,4.958c2.734,0,4.959-2.224,4.959-4.958
				C392.092,407.137,389.867,404.912,387.133,404.912z"/>
		</g>
		<g>
			<path style="fill:#BAD9F6;" d="M591.26,400.883c-4.001,0-7.255-3.254-7.255-7.255c0-4,3.254-7.255,7.255-7.255
				c4,0,7.255,3.254,7.255,7.255C598.515,397.629,595.26,400.883,591.26,400.883z M591.26,388.67c-2.734,0-4.958,2.224-4.958,4.958
				c0,2.734,2.225,4.959,4.958,4.959c2.735,0,4.958-2.225,4.958-4.959C596.218,390.894,593.995,388.67,591.26,388.67z"/>
		</g>
		<g>
			<path style="fill:#BAD9F6;" d="M634.862,263.745h-12.956c-0.41,0-0.789-0.219-0.995-0.574c-0.205-0.355-0.205-0.793,0-1.148
				l6.477-11.22c0.41-0.711,1.579-0.711,1.989,0l6.479,11.22c0.205,0.356,0.205,0.793,0,1.148
				C635.652,263.526,635.272,263.745,634.862,263.745z M623.895,261.448h8.977l-4.489-7.775L623.895,261.448z"/>
		</g>
		<path style="fill:#BAD9F6;" d="M101.888,122.228l-3.182,3.182l3.182,3.181c0.448,0.449,0.448,1.175,0,1.624
			c-0.225,0.224-0.518,0.337-0.812,0.337s-0.588-0.112-0.812-0.337l-3.182-3.182l-3.182,3.182c-0.224,0.224-0.518,0.337-0.812,0.337
			s-0.588-0.112-0.812-0.337c-0.449-0.448-0.449-1.175,0-1.624l3.181-3.181l-3.181-3.182c-0.449-0.449-0.449-1.175,0-1.624
			c0.449-0.448,1.175-0.448,1.624,0l3.182,3.182l3.182-3.182c0.449-0.448,1.175-0.448,1.624,0
			C102.336,121.053,102.336,121.779,101.888,122.228z M118.182,120.604c-0.448-0.448-1.175-0.448-1.623,0l-3.182,3.182l-3.182-3.182
			c-0.448-0.448-1.175-0.448-1.624,0c-0.448,0.449-0.448,1.175,0,1.624l3.182,3.182l-3.182,3.181c-0.448,0.449-0.448,1.175,0,1.624
			c0.224,0.224,0.518,0.337,0.812,0.337s0.588-0.112,0.812-0.337l3.182-3.182l3.182,3.182c0.224,0.224,0.518,0.337,0.812,0.337
			c0.294,0,0.588-0.112,0.812-0.337c0.449-0.448,0.449-1.175,0-1.624l-3.182-3.181l3.182-3.182
			C118.631,121.779,118.631,121.053,118.182,120.604z M131.295,125.409l3.182-3.182c0.449-0.449,0.449-1.175,0-1.624
			c-0.449-0.448-1.175-0.448-1.624,0l-3.182,3.182l-3.182-3.182c-0.448-0.448-1.175-0.448-1.624,0c-0.448,0.449-0.448,1.175,0,1.624
			l3.182,3.182l-3.182,3.181c-0.448,0.449-0.448,1.175,0,1.624c0.224,0.224,0.518,0.337,0.812,0.337
			c0.294,0,0.588-0.112,0.812-0.337l3.182-3.182l3.182,3.182c0.225,0.224,0.518,0.337,0.812,0.337s0.588-0.112,0.812-0.337
			c0.449-0.448,0.449-1.175,0-1.624L131.295,125.409z"/>
		<path style="fill:#BAD9F6;" d="M295.177,115.141h-4.369v-4.37c0-0.634-0.513-1.148-1.148-1.148c-0.635,0-1.148,0.514-1.148,1.148
			v4.37h-4.369c-0.635,0-1.148,0.514-1.148,1.148c0,0.635,0.513,1.148,1.148,1.148h4.369v4.369c0,0.634,0.513,1.148,1.148,1.148
			c0.635,0,1.148-0.514,1.148-1.148v-4.369h4.369c0.634,0,1.148-0.514,1.148-1.148C296.325,115.655,295.811,115.141,295.177,115.141
			z"/>
	</g>
</g>
</svg>
